<svg width="99" height="38" viewBox="0 0 99 38" fill="none" xmlns="http://www.w3.org/2000/svg">
<path d="M10.0938 23.2344C9.23438 23.651 8.46615 24.2044 7.78906 24.8945C7.125 25.5716 6.5651 26.3073 6.10938 27.1016C5.66667 27.8958 5.32812 28.6966 5.09375 29.5039C4.85938 30.3112 4.74219 31.0404 4.74219 31.6914C4.74219 31.9518 4.76823 32.2122 4.82031 32.4727C4.88542 32.7331 4.99609 32.9674 5.15234 33.1758C5.30859 33.3841 5.52995 33.5534 5.81641 33.6836C6.10286 33.8138 6.47396 33.8789 6.92969 33.8789C7.16406 33.8789 7.39193 33.8203 7.61328 33.7031C7.84766 33.5859 8.06901 33.4362 8.27734 33.2539C8.48568 33.0586 8.68099 32.8438 8.86328 32.6094C9.05859 32.362 9.23438 32.1081 9.39062 31.8477C9.75521 31.2487 10.0872 30.5716 10.3867 29.8164C10.3477 29.6341 10.3151 29.3477 10.2891 28.957C10.263 28.5534 10.2435 28.1107 10.2305 27.6289C10.2174 27.1341 10.2044 26.6263 10.1914 26.1055C10.1784 25.5846 10.1654 25.1094 10.1523 24.6797C10.1523 24.25 10.1458 23.8984 10.1328 23.625C10.1198 23.3516 10.1068 23.2214 10.0938 23.2344ZM23.5312 34.1719C22.6068 34.888 21.6953 35.526 20.7969 36.0859C20.4193 36.3203 20.0221 36.5547 19.6055 36.7891C19.1888 37.0104 18.7786 37.2122 18.375 37.3945C17.9714 37.5638 17.5742 37.707 17.1836 37.8242C16.806 37.9284 16.4544 37.9805 16.1289 37.9805C15.9466 37.9805 15.6732 37.9414 15.3086 37.8633C14.957 37.7852 14.5664 37.6289 14.1367 37.3945C13.7201 37.1471 13.2969 36.7956 12.8672 36.3398C12.4505 35.8841 12.0859 35.2786 11.7734 34.5234C11.2917 34.9922 10.7773 35.4414 10.2305 35.8711C9.69661 36.2878 9.13672 36.6523 8.55078 36.9648C7.97786 37.2773 7.39193 37.5312 6.79297 37.7266C6.20703 37.9089 5.61458 38 5.01562 38C4.16927 38 3.43359 37.8177 2.80859 37.4531C2.19661 37.0885 1.68229 36.6068 1.26562 36.0078C0.861979 35.3958 0.55599 34.7057 0.347656 33.9375C0.152344 33.1693 0.0546875 32.375 0.0546875 31.5547C0.0546875 30.7214 0.158854 29.8815 0.367188 29.0352C0.588542 28.1758 0.901042 27.349 1.30469 26.5547C1.72135 25.7474 2.22266 24.9922 2.80859 24.2891C3.39453 23.5729 4.05859 22.9414 4.80078 22.3945C5.54297 21.8346 6.35026 21.3724 7.22266 21.0078C8.09505 20.6432 9.02604 20.4154 10.0156 20.3242C10.0547 18.6576 10.2044 17.0104 10.4648 15.3828C10.7253 13.7552 11.0703 12.2057 11.5 10.7344C11.9297 9.26302 12.431 7.90234 13.0039 6.65234C13.5898 5.40234 14.2279 4.32161 14.918 3.41016C15.6081 2.4987 16.3438 1.78906 17.125 1.28125C17.9062 0.760417 18.7135 0.5 19.5469 0.5C20.1589 0.5 20.6797 0.66276 21.1094 0.988281C21.5391 1.30078 21.8841 1.72396 22.1445 2.25781C22.418 2.77865 22.6133 3.39062 22.7305 4.09375C22.8477 4.78385 22.9062 5.5 22.9062 6.24219C22.9062 6.69792 22.8867 7.16667 22.8477 7.64844C22.6784 9.48438 22.3659 11.2227 21.9102 12.8633C21.4544 14.4909 20.9206 16.0794 20.3086 17.6289C19.6966 19.1784 19.0326 20.7148 18.3164 22.2383C17.6003 23.7617 16.9036 25.3438 16.2266 26.9844C16.1615 27.1667 16.0964 27.388 16.0312 27.6484C15.9661 27.9089 15.901 28.1953 15.8359 28.5078C15.7839 28.8073 15.7383 29.1198 15.6992 29.4453C15.6602 29.7578 15.6406 30.0638 15.6406 30.3633C15.6406 30.7409 15.6602 31.099 15.6992 31.4375C15.7513 31.776 15.8294 32.082 15.9336 32.3555C16.0378 32.6159 16.1745 32.8242 16.3438 32.9805C16.526 33.1367 16.7474 33.2148 17.0078 33.2148C17.2552 33.2148 17.5221 33.1693 17.8086 33.0781C18.1081 32.974 18.4206 32.8372 18.7461 32.668C19.0716 32.4987 19.3971 32.3099 19.7227 32.1016C20.0612 31.8802 20.3867 31.6589 20.6992 31.4375C21.4154 30.9167 22.1641 30.3242 22.9453 29.6602L23.5312 34.1719ZM19.2734 9.07422C19.3516 8.16276 19.3906 7.4401 19.3906 6.90625C19.3906 6.20312 19.3255 5.71484 19.1953 5.44141C19.0781 5.16797 18.9023 5.03125 18.668 5.03125C18.2513 5.03125 17.8737 5.29818 17.5352 5.83203C17.1966 6.35286 16.8971 7.02344 16.6367 7.84375C16.3763 8.66406 16.1484 9.56901 15.9531 10.5586C15.7578 11.5482 15.5951 12.5052 15.4648 13.4297C15.3346 14.3542 15.2305 15.1875 15.1523 15.9297C15.0742 16.6719 15.0221 17.1992 14.9961 17.5117C14.944 18.1497 14.8984 18.7682 14.8594 19.3672C14.8333 19.9531 14.8138 20.4935 14.8008 20.9883C14.7878 21.4701 14.7812 21.8932 14.7812 22.2578C14.7812 22.6224 14.7812 22.9023 14.7812 23.0977V23.293C15.5234 21.6003 16.207 19.9141 16.832 18.2344C17.0924 17.5182 17.3529 16.7695 17.6133 15.9883C17.8867 15.194 18.1341 14.3997 18.3555 13.6055C18.5768 12.8112 18.7656 12.0299 18.9219 11.2617C19.0911 10.4935 19.2083 9.76432 19.2734 9.07422ZM32.7125 33.8398C32.2437 34.2695 31.6578 34.7318 30.9547 35.2266C30.2646 35.7083 29.5159 36.1576 28.7086 36.5742C27.9013 36.9779 27.0745 37.3164 26.2281 37.5898C25.3948 37.8633 24.6005 38 23.8453 38C23.1682 38 22.5953 37.9089 22.1266 37.7266C21.6708 37.5312 21.2997 37.2643 21.0133 36.9258C20.7268 36.5872 20.5185 36.1771 20.3883 35.6953C20.2711 35.2005 20.2125 34.6602 20.2125 34.0742C20.2125 33.2539 20.3036 32.3034 20.4859 31.2227C20.6812 30.1289 20.9156 29.0026 21.1891 27.8438C21.4625 26.6719 21.749 25.5065 22.0484 24.3477C22.3609 23.1888 22.6344 22.1211 22.8687 21.1445C22.9599 20.806 23.1422 20.5195 23.4156 20.2852C23.6891 20.0378 23.9951 19.8424 24.3336 19.6992C24.6852 19.543 25.0432 19.4323 25.4078 19.3672C25.7854 19.2891 26.124 19.25 26.4234 19.25C26.9703 19.25 27.3414 19.3542 27.5367 19.5625C27.732 19.7578 27.8297 20.0247 27.8297 20.3633C27.8297 20.6497 27.7646 21.0664 27.6344 21.6133C27.5042 22.1471 27.3414 22.7591 27.1461 23.4492C26.9508 24.1263 26.7424 24.862 26.5211 25.6562C26.2997 26.4375 26.0914 27.2253 25.8961 28.0195C25.7008 28.8008 25.538 29.569 25.4078 30.3242C25.2776 31.0664 25.2125 31.737 25.2125 32.3359C25.2125 32.9219 25.2776 33.3906 25.4078 33.7422C25.538 34.0807 25.8049 34.25 26.2086 34.25C26.6773 34.25 27.1982 34.0872 27.7711 33.7617C28.344 33.4362 28.9234 33.0456 29.5094 32.5898C30.0953 32.1211 30.6682 31.6393 31.2281 31.1445C31.788 30.6497 32.2828 30.2266 32.7125 29.875V33.8398ZM23.982 13.7617C23.982 13.4622 24.0471 13.1237 24.1773 12.7461C24.3076 12.3685 24.5159 12.0169 24.8023 11.6914C25.1018 11.3529 25.4924 11.0729 25.9742 10.8516C26.469 10.6172 27.081 10.5 27.8102 10.5C28.2659 10.5 28.6956 10.5521 29.0992 10.6562C29.5029 10.7604 29.8544 10.9232 30.1539 11.1445C30.4534 11.3529 30.6878 11.6328 30.857 11.9844C31.0393 12.3359 31.1305 12.7526 31.1305 13.2344C31.1305 13.6771 31.0589 14.1068 30.9156 14.5234C30.7724 14.9401 30.5445 15.3112 30.232 15.6367C29.9195 15.9622 29.5224 16.2292 29.0406 16.4375C28.5719 16.6328 28.0055 16.7305 27.3414 16.7305C26.1956 16.7305 25.3492 16.4635 24.8023 15.9297C24.2555 15.3828 23.982 14.6602 23.982 13.7617ZM29.7453 33.918C29.7453 33.0586 29.7974 32.069 29.9016 30.9492C30.0057 29.8164 30.1359 28.6706 30.2922 27.5117C30.4484 26.3398 30.6242 25.2135 30.8195 24.1328C31.0148 23.0521 31.2036 22.1276 31.3859 21.3594C31.5292 20.7604 31.8026 20.2591 32.2062 19.8555C32.6229 19.4518 33.1828 19.25 33.8859 19.25C34.5891 19.25 35.0773 19.4648 35.3508 19.8945C35.6242 20.3242 35.7609 20.8971 35.7609 21.6133C35.7609 21.8086 35.7414 22.0755 35.7023 22.4141C35.6633 22.7396 35.6112 23.1042 35.5461 23.5078C35.494 23.8984 35.4354 24.3086 35.3703 24.7383C35.3052 25.1549 35.2401 25.5456 35.175 25.9102C35.1229 26.2617 35.0773 26.5742 35.0383 26.8477C34.9992 27.1081 34.9797 27.2839 34.9797 27.375H35.3703C35.4484 27.2318 35.5721 27.0039 35.7414 26.6914C35.9107 26.3659 36.106 25.9948 36.3273 25.5781C36.5487 25.1615 36.7831 24.7253 37.0305 24.2695C37.2909 23.8008 37.5318 23.3581 37.7531 22.9414C37.9745 22.5117 38.1763 22.1341 38.3586 21.8086C38.5409 21.4831 38.6776 21.2422 38.7687 21.0859C39.1854 20.3828 39.6607 19.901 40.1945 19.6406C40.7284 19.3802 41.3208 19.25 41.9719 19.25C42.6229 19.25 43.1372 19.5234 43.5148 20.0703C43.9055 20.6172 44.1008 21.3724 44.1008 22.3359C44.1008 22.4792 44.0682 22.7201 44.0031 23.0586C43.951 23.3971 43.8794 23.8008 43.7883 24.2695C43.6971 24.7383 43.593 25.2526 43.4758 25.8125C43.3716 26.3724 43.274 26.9453 43.1828 27.5312C43.0917 28.1172 43.0135 28.6966 42.9484 29.2695C42.8964 29.8424 42.8703 30.3698 42.8703 30.8516C42.8703 31.6589 42.968 32.3229 43.1633 32.8438C43.3716 33.3646 43.6906 33.625 44.1203 33.625C44.3156 33.625 44.537 33.5664 44.7844 33.4492C45.0448 33.332 45.3182 33.1823 45.6047 33C45.9042 32.8047 46.2036 32.5833 46.5031 32.3359C46.8156 32.0885 47.1216 31.8346 47.4211 31.5742C48.1112 30.9622 48.8339 30.2721 49.5891 29.5039L49.9211 33.8789L48.9445 34.6211C48.4107 35.0247 47.8638 35.4284 47.3039 35.832C46.757 36.2357 46.1841 36.6003 45.5852 36.9258C44.9862 37.2383 44.3612 37.4987 43.7102 37.707C43.0591 37.9023 42.3755 38 41.6594 38C40.9432 38 40.3378 37.4857 39.843 36.457C39.3612 35.4154 39.1203 33.8984 39.1203 31.9062C39.1203 31.125 39.1724 30.2852 39.2766 29.3867C39.3807 28.4753 39.5109 27.4987 39.6672 26.457H39.3547L34.2375 36.6133C33.9771 37.1471 33.6841 37.5117 33.3586 37.707C33.0331 37.9023 32.6555 38 32.2258 38C31.6919 38 31.2622 37.8893 30.9367 37.668C30.6112 37.4336 30.3573 37.1276 30.175 36.75C30.0057 36.3594 29.8885 35.9232 29.8234 35.4414C29.7714 34.9466 29.7453 34.4388 29.7453 33.918ZM54.8641 23.2344C54.0047 23.651 53.2365 24.2044 52.5594 24.8945C51.8953 25.5716 51.3354 26.3073 50.8797 27.1016C50.437 27.8958 50.0984 28.6966 49.8641 29.5039C49.6297 30.3112 49.5125 31.0404 49.5125 31.6914C49.5125 31.9518 49.5385 32.2122 49.5906 32.4727C49.6557 32.7331 49.7664 32.9674 49.9227 33.1758C50.0789 33.3841 50.3003 33.5534 50.5867 33.6836C50.8732 33.8138 51.2443 33.8789 51.7 33.8789C51.9344 33.8789 52.1622 33.8203 52.3836 33.7031C52.618 33.5859 52.8393 33.4362 53.0477 33.2539C53.256 33.0586 53.4513 32.8438 53.6336 32.6094C53.8289 32.362 54.0047 32.1081 54.1609 31.8477C54.5255 31.2487 54.8576 30.5716 55.157 29.8164C55.118 29.6341 55.0854 29.3477 55.0594 28.957C55.0333 28.5534 55.0138 28.1107 55.0008 27.6289C54.9878 27.1341 54.9747 26.6263 54.9617 26.1055C54.9487 25.5846 54.9357 25.1094 54.9227 24.6797C54.9227 24.25 54.9161 23.8984 54.9031 23.625C54.8901 23.3516 54.8771 23.2214 54.8641 23.2344ZM68.3016 34.1719C67.3771 34.888 66.4656 35.526 65.5672 36.0859C65.1896 36.3203 64.7924 36.5547 64.3758 36.7891C63.9591 37.0104 63.549 37.2122 63.1453 37.3945C62.7417 37.5638 62.3445 37.707 61.9539 37.8242C61.5763 37.9284 61.2247 37.9805 60.8992 37.9805C60.7169 37.9805 60.4435 37.9414 60.0789 37.8633C59.7273 37.7852 59.3367 37.6289 58.907 37.3945C58.4904 37.1471 58.0672 36.7956 57.6375 36.3398C57.2208 35.8841 56.8563 35.2786 56.5438 34.5234C56.062 34.9922 55.5477 35.4414 55.0008 35.8711C54.4669 36.2878 53.907 36.6523 53.3211 36.9648C52.7482 37.2773 52.1622 37.5312 51.5633 37.7266C50.9773 37.9089 50.3849 38 49.7859 38C48.9396 38 48.2039 37.8177 47.5789 37.4531C46.9669 37.0885 46.4526 36.6068 46.0359 36.0078C45.6323 35.3958 45.3263 34.7057 45.118 33.9375C44.9227 33.1693 44.825 32.375 44.825 31.5547C44.825 30.7214 44.9292 29.8815 45.1375 29.0352C45.3589 28.1758 45.6714 27.349 46.075 26.5547C46.4917 25.7474 46.993 24.9922 47.5789 24.2891C48.1648 23.5729 48.8289 22.9414 49.5711 22.3945C50.3133 21.8346 51.1206 21.3724 51.993 21.0078C52.8654 20.6432 53.7964 20.4154 54.7859 20.3242C54.825 18.6576 54.9747 17.0104 55.2352 15.3828C55.4956 13.7552 55.8406 12.2057 56.2703 10.7344C56.7 9.26302 57.2013 7.90234 57.7742 6.65234C58.3602 5.40234 58.9982 4.32161 59.6883 3.41016C60.3784 2.4987 61.1141 1.78906 61.8953 1.28125C62.6766 0.760417 63.4839 0.5 64.3172 0.5C64.9292 0.5 65.45 0.66276 65.8797 0.988281C66.3094 1.30078 66.6544 1.72396 66.9148 2.25781C67.1883 2.77865 67.3836 3.39062 67.5008 4.09375C67.618 4.78385 67.6766 5.5 67.6766 6.24219C67.6766 6.69792 67.657 7.16667 67.618 7.64844C67.4487 9.48438 67.1362 11.2227 66.6805 12.8633C66.2247 14.4909 65.6909 16.0794 65.0789 17.6289C64.4669 19.1784 63.8029 20.7148 63.0867 22.2383C62.3706 23.7617 61.674 25.3438 60.9969 26.9844C60.9318 27.1667 60.8667 27.388 60.8016 27.6484C60.7365 27.9089 60.6714 28.1953 60.6063 28.5078C60.5542 28.8073 60.5086 29.1198 60.4695 29.4453C60.4305 29.7578 60.4109 30.0638 60.4109 30.3633C60.4109 30.7409 60.4305 31.099 60.4695 31.4375C60.5216 31.776 60.5997 32.082 60.7039 32.3555C60.8081 32.6159 60.9448 32.8242 61.1141 32.9805C61.2964 33.1367 61.5177 33.2148 61.7781 33.2148C62.0255 33.2148 62.2924 33.1693 62.5789 33.0781C62.8784 32.974 63.1909 32.8372 63.5164 32.668C63.8419 32.4987 64.1674 32.3099 64.493 32.1016C64.8315 31.8802 65.157 31.6589 65.4695 31.4375C66.1857 30.9167 66.9344 30.3242 67.7156 29.6602L68.3016 34.1719ZM64.0438 9.07422C64.1219 8.16276 64.1609 7.4401 64.1609 6.90625C64.1609 6.20312 64.0958 5.71484 63.9656 5.44141C63.8484 5.16797 63.6727 5.03125 63.4383 5.03125C63.0216 5.03125 62.644 5.29818 62.3055 5.83203C61.9669 6.35286 61.6674 7.02344 61.407 7.84375C61.1466 8.66406 60.9188 9.56901 60.7234 10.5586C60.5281 11.5482 60.3654 12.5052 60.2352 13.4297C60.1049 14.3542 60.0008 15.1875 59.9227 15.9297C59.8445 16.6719 59.7924 17.1992 59.7664 17.5117C59.7143 18.1497 59.6688 18.7682 59.6297 19.3672C59.6036 19.9531 59.5841 20.4935 59.5711 20.9883C59.5581 21.4701 59.5516 21.8932 59.5516 22.2578C59.5516 22.6224 59.5516 22.9023 59.5516 23.0977V23.293C60.2938 21.6003 60.9773 19.9141 61.6023 18.2344C61.8628 17.5182 62.1232 16.7695 62.3836 15.9883C62.657 15.194 62.9044 14.3997 63.1258 13.6055C63.3471 12.8112 63.5359 12.0299 63.6922 11.2617C63.8615 10.4935 63.9786 9.76432 64.0438 9.07422ZM72.2094 38C70.9854 38 69.9112 37.7786 68.9867 37.3359C68.0753 36.8932 67.3135 36.3008 66.7016 35.5586C66.0896 34.8034 65.6273 33.9375 65.3148 32.9609C65.0154 31.9714 64.8656 30.9362 64.8656 29.8555C64.8656 29.1263 64.9372 28.3581 65.0805 27.5508C65.2237 26.7305 65.4385 25.9297 65.725 25.1484C66.0245 24.3672 66.3956 23.625 66.8383 22.9219C67.281 22.2057 67.7953 21.5807 68.3812 21.0469C68.9802 20.5 69.6443 20.0703 70.3734 19.7578C71.1156 19.4323 71.9359 19.2695 72.8344 19.2695C73.5635 19.2695 74.2406 19.3867 74.8656 19.6211C75.4906 19.8555 76.031 20.1875 76.4867 20.6172C76.9555 21.0339 77.3201 21.5417 77.5805 22.1406C77.8409 22.7396 77.9711 23.4102 77.9711 24.1523C77.9711 24.9596 77.7693 25.7669 77.3656 26.5742C76.975 27.3815 76.4281 28.1432 75.725 28.8594C75.0219 29.5755 74.182 30.2135 73.2055 30.7734C72.2419 31.3333 71.1937 31.7695 70.0609 32.082C70.2562 32.4336 70.4451 32.7266 70.6273 32.9609C70.8227 33.1953 71.018 33.3776 71.2133 33.5078C71.4086 33.638 71.6104 33.7292 71.8187 33.7812C72.0401 33.8333 72.2745 33.8594 72.5219 33.8594C73.3031 33.8594 74.1234 33.7031 74.9828 33.3906C75.8552 33.0781 76.7016 32.6875 77.5219 32.2188C78.3422 31.75 79.1169 31.2422 79.8461 30.6953C80.5753 30.1354 81.1937 29.6081 81.7016 29.1133L84.2211 31.7305C83.0753 32.9154 81.8578 33.9635 80.5687 34.875C80.0089 35.2656 79.4034 35.6497 78.7523 36.0273C78.1143 36.4049 77.4372 36.7435 76.7211 37.043C76.018 37.3294 75.2823 37.5638 74.5141 37.7461C73.7589 37.9154 72.9906 38 72.2094 38ZM69.6117 28.8203C70.0805 28.8203 70.5883 28.7031 71.1352 28.4688C71.6951 28.2214 72.2094 27.9089 72.6781 27.5312C73.1599 27.1536 73.5635 26.7435 73.8891 26.3008C74.2146 25.8581 74.3773 25.4284 74.3773 25.0117C74.3773 24.4258 74.2667 23.944 74.0453 23.5664C73.837 23.1888 73.5766 23 73.2641 23C72.7042 23 72.2224 23.1042 71.8187 23.3125C71.4281 23.5208 71.0961 23.7943 70.8227 24.1328C70.5622 24.4583 70.3474 24.8359 70.1781 25.2656C70.0219 25.6823 69.8982 26.1055 69.807 26.5352C69.7289 26.9648 69.6768 27.3815 69.6508 27.7852C69.6247 28.1888 69.6117 28.5339 69.6117 28.8203ZM79.3984 33.918C79.3984 33.3451 79.431 32.681 79.4961 31.9258C79.5612 31.1576 79.6458 30.3503 79.75 29.5039C79.8672 28.6576 79.9974 27.7982 80.1406 26.9258C80.2969 26.0404 80.4596 25.2005 80.6289 24.4062C80.7982 23.612 80.9674 22.8828 81.1367 22.2188C81.306 21.5547 81.4753 21.0078 81.6445 20.5781C81.7487 20.2917 81.8529 20.0638 81.957 19.8945C82.0612 19.7253 82.1784 19.5951 82.3086 19.5039C82.4518 19.3997 82.6211 19.3346 82.8164 19.3086C83.0247 19.2695 83.2786 19.25 83.5781 19.25C83.9167 19.25 84.1771 19.2695 84.3594 19.3086C84.5547 19.3346 84.6979 19.4128 84.7891 19.543C84.8802 19.6602 84.9323 19.8359 84.9453 20.0703C84.9714 20.3047 84.9844 20.6237 84.9844 21.0273C84.9844 21.5091 84.9844 22.0951 84.9844 22.7852C84.9844 23.4622 84.9974 24.1328 85.0234 24.7969H85.2383C85.4987 24.276 85.7917 23.6966 86.1172 23.0586C86.4427 22.4076 86.8203 21.8021 87.25 21.2422C87.6797 20.6823 88.168 20.2135 88.7148 19.8359C89.2617 19.4453 89.8932 19.25 90.6094 19.25C90.8568 19.25 91.0977 19.2956 91.332 19.3867C91.5664 19.4648 91.7682 19.582 91.9375 19.7383C92.1198 19.8945 92.263 20.0898 92.3672 20.3242C92.4714 20.5456 92.5234 20.7995 92.5234 21.0859C92.5234 21.3073 92.4909 21.6198 92.4258 22.0234C92.3607 22.4141 92.2891 22.8307 92.2109 23.2734C92.1328 23.7031 92.0612 24.1263 91.9961 24.543C91.931 24.9466 91.8984 25.2852 91.8984 25.5586C91.8984 26.0273 91.944 26.418 92.0352 26.7305C92.1263 27.043 92.2435 27.2969 92.3867 27.4922C92.543 27.6745 92.7122 27.8047 92.8945 27.8828C93.0898 27.9609 93.2917 28 93.5 28C94.0859 28 94.6914 27.8698 95.3164 27.6094C95.9414 27.349 96.5143 27.056 97.0352 26.7305C97.6471 26.3529 98.2461 25.9232 98.832 25.4414L98.5391 30.0117C98.2005 30.2331 97.8164 30.4805 97.3867 30.7539C96.957 31.0273 96.4948 31.2878 96 31.5352C95.5182 31.7695 95.0104 31.9714 94.4766 32.1406C93.9557 32.2969 93.4219 32.375 92.875 32.375C91.8984 32.375 91.1107 32.1797 90.5117 31.7891C89.9128 31.3854 89.4375 30.8646 89.0859 30.2266C88.7344 29.5755 88.474 28.8529 88.3047 28.0586C88.1354 27.2513 87.9987 26.4375 87.8945 25.6172H87.582L84.0859 35.3633C83.9036 35.8711 83.7279 36.2943 83.5586 36.6328C83.4023 36.9583 83.2396 37.2253 83.0703 37.4336C82.901 37.6419 82.7188 37.7917 82.5234 37.8828C82.3281 37.9609 82.1133 38 81.8789 38C81.3451 38 80.9154 37.8893 80.5898 37.668C80.2643 37.4336 80.0104 37.1276 79.8281 36.75C79.6589 36.3594 79.5417 35.9232 79.4766 35.4414C79.4245 34.9466 79.3984 34.4388 79.3984 33.918Z" fill="#E12345"/>
</svg>
