<svg width="50" height="50" viewBox="0 0 50 50" fill="none" xmlns="http://www.w3.org/2000/svg">
<path d="M37.875 44.2708H12.125C8.58337 44.2708 5.72919 41.3958 5.72919 37.875V12.125C5.72919 8.58335 8.6042 5.72917 12.125 5.72917H37.875C41.4167 5.72917 44.2709 8.60419 44.2709 12.125V37.875C44.2709 41.3958 41.3958 44.2708 37.875 44.2708Z" stroke="#717171" stroke-width="2.5" stroke-linecap="round" stroke-linejoin="round"/>
<path d="M5.72919 36.3542L13.0834 29C14.3334 27.75 16.375 27.75 17.625 29L19.5 30.875C20.75 32.125 22.7917 32.125 24.0417 30.875L32.3542 22.5624C33.6042 21.3124 35.6458 21.3124 36.8958 22.5624L44.25 29.9166" stroke="#717171" stroke-width="2.5" stroke-linecap="round" stroke-linejoin="round"/>
<path d="M16.9791 12.3125C15.2291 12.3125 13.8125 13.7291 13.8125 15.4791C13.8125 17.2291 15.2291 18.6459 16.9791 18.6459C18.7291 18.6459 20.1459 17.2291 20.1459 15.4791C20.1459 13.7291 18.7083 12.3125 16.9791 12.3125Z" fill="#717171"/>
</svg>
