<svg width="48" height="44" viewBox="0 0 48 44" fill="none" xmlns="http://www.w3.org/2000/svg">
<g clip-path="url(#clip0_94_4)">
<path fill-rule="evenodd" clip-rule="evenodd" d="M10.6945 16.0567C12.6662 20.2414 12.1605 24.6253 9.56061 25.8508C6.96069 27.0764 3.25885 24.6776 1.28611 20.4899C-0.686628 16.3022 -0.178884 11.9243 2.41712 10.7039C5.01313 9.48341 8.72282 11.873 10.6945 16.0567Z" fill="#DFDFDF"/>
<path fill-rule="evenodd" clip-rule="evenodd" d="M36.5635 15.617C34.7352 19.8663 35.3885 24.2304 38.0296 25.3669C40.6707 26.5033 44.2879 23.9801 46.1171 19.7278C47.9464 15.4755 47.2881 11.1174 44.6511 9.9859C42.0141 8.85439 38.3928 11.3687 36.5635 15.617Z" fill="#DFDFDF"/>
<path fill-rule="evenodd" clip-rule="evenodd" d="M21.6728 7.41468C22.7236 11.9191 21.3093 16.0994 18.5126 16.7521C15.7159 17.4048 12.5969 14.2819 11.547 9.77845C10.4972 5.275 11.9095 1.09378 14.7063 0.441066C17.503 -0.211653 20.6219 2.91024 21.6728 7.41468Z" fill="#DFDFDF"/>
<path fill-rule="evenodd" clip-rule="evenodd" d="M25.2259 7.35832C24.3287 11.8959 25.8843 16.0256 28.7006 16.5829C31.5169 17.1402 34.529 13.9141 35.4261 9.37655C36.3232 4.83899 34.7666 0.709257 31.9503 0.151959C29.134 -0.405339 26.122 2.82078 25.2259 7.35832Z" fill="#DFDFDF"/>
<path fill-rule="evenodd" clip-rule="evenodd" d="M18.4167 22.5874C17.7518 23.7821 14.6444 27.753 12.4711 29.1263C10.2978 30.4997 7.6111 32.5029 8.14448 36.9882C8.67786 41.4734 13.3186 43.318 16.3507 43.0965C19.3828 42.8749 25.0923 42.2196 29.1859 42.7162C33.2795 43.2128 38.4252 42.6962 39.5591 38.3757C40.693 34.0551 37.9474 31.358 35.8129 29.8369C33.6785 28.3157 30.0845 23.7324 28.9642 21.6109C27.8438 19.4893 22.2614 15.6811 18.4168 22.5904L18.4167 22.5874Z" fill="#DFDFDF"/>
</g>
<defs>
<clipPath id="clip0_94_4">
<rect width="47.335" height="43.26" fill="white"/>
</clipPath>
</defs>
</svg>
