<svg width="20" height="20" viewBox="0 0 20 20" fill="none" xmlns="http://www.w3.org/2000/svg">
<path d="M9.275 9.3083L11.875 8.1333L10.725 10.6916L8.10001 11.9333L9.275 9.3083Z" fill="#DFDFDF"/>
<path d="M9.99999 1.66663C5.40832 1.66663 1.66666 5.40829 1.66666 9.99996C1.66666 14.5916 5.40832 18.3333 9.99999 18.3333C14.5917 18.3333 18.3333 14.5916 18.3333 9.99996C18.3333 5.40829 14.5917 1.66663 9.99999 1.66663ZM13.0833 8.47496L11.825 11.2416C11.7083 11.5 11.5 11.7083 11.2417 11.825L8.47499 13.0833C8.31665 13.1583 8.14999 13.1916 7.98332 13.1916C7.67499 13.1916 7.38332 13.075 7.14999 12.85C6.79999 12.5 6.70833 11.975 6.91666 11.525L8.17499 8.75829C8.29165 8.49996 8.49999 8.29163 8.75832 8.17496L11.525 6.91663C11.975 6.70829 12.5 6.79996 12.85 7.14996C13.2 7.49996 13.2917 8.02496 13.0833 8.47496Z" fill="#DFDFDF"/>
</svg>
