<svg width="36" height="36" viewBox="0 0 36 36" fill="none" xmlns="http://www.w3.org/2000/svg">
<path d="M12.29 20.455C13.3945 20.455 14.29 19.5595 14.29 18.455C14.29 17.3504 13.3945 16.455 12.29 16.455C11.1854 16.455 10.29 17.3504 10.29 18.455C10.29 19.5595 11.1854 20.455 12.29 20.455Z" fill="#717171"/>
<path d="M18.455 20.455C19.5595 20.455 20.455 19.5595 20.455 18.455C20.455 17.3504 19.5595 16.455 18.455 16.455C17.3504 16.455 16.455 17.3504 16.455 18.455C16.455 19.5595 17.3504 20.455 18.455 20.455Z" fill="#717171"/>
<path d="M24.6199 20.455C25.7245 20.455 26.6199 19.5595 26.6199 18.455C26.6199 17.3504 25.7245 16.455 24.6199 16.455C23.5154 16.455 22.6199 17.3504 22.6199 18.455C22.6199 19.5595 23.5154 20.455 24.6199 20.455Z" fill="#717171"/>
<path d="M30.66 23.7H30.645C31.425 21.96 31.875 20.025 31.875 18C31.875 10.335 25.665 4.125 18 4.125C10.335 4.125 4.125 10.335 4.125 18C4.125 25.665 10.335 31.875 18 31.875C20.265 31.875 22.41 31.32 24.3 30.36L31.8 31.47L30.66 23.7Z" stroke="#717171" stroke-width="2" stroke-linecap="round" stroke-linejoin="round"/>
</svg>
